# xmcd
# 
# Track frame offsets:
#     150
#     12129
#     22035
#     34926
#     47680
#     59793
#     73470
#     86940
#     99161
#     112441
#     126651
#     137883
#     148127
#     161504
#     174022
#     186990
#     197494
#     208987
#     218984
#     231856
#     245332
#     257628
#     270971
#     284157
#     297941
#     312232
#     326786
# 
# Disc length: 4524
# 
# Revision: 2
# Processed by: cddbd v1.5.2PL0 Copyright (c) Steve Scherf et al.
# Submitted via: fre:ac v1.0.17
# 
DISCID=b911aa1b
DTITLE=king oliver - triomphes2-1
DYEAR=1923
DGENRE=Jazz
TTITLE0=just gone
TTITLE1=mandy lee blues
TTITLE2=i'm going away to wear
TTITLE3=chimes blues
TTITLE4=weather bird rag
TTITLE5=froggie moore
TTITLE6=snake rag
TTITLE7=sweetlovin'man
TTITLE8=high society rag
TTITLE9=sobbin'blues
TTITLE10=where did you stay last night
TTITLE11=dippermouth blues
TTITLE12=jazzin'babies blues
TTITLE13=mabel's dream
TTITLE14=riverside blues
TTITLE15=alligator hop
TTITLE16=zulus ball
TTITLE17=workingman blues
TTITLE18=krooked blues
TTITLE19=chattanooga stomp
TTITLE20=london cafe blues
TTITLE21=camp meeting blues
TTITLE22=new orleans stomp
TTITLE23=buddy'habbit
TTITLE24=tears
TTITLE25=i ain't gonna tell nobody
TTITLE26=room rent blues
EXTD=YEAR: 1923
EXTT0=
EXTT1=
EXTT2=
EXTT3=
EXTT4=
EXTT5=
EXTT6=
EXTT7=
EXTT8=
EXTT9=
EXTT10=
EXTT11=
EXTT12=
EXTT13=
EXTT14=
EXTT15=
EXTT16=
EXTT17=
EXTT18=
EXTT19=
EXTT20=
EXTT21=
EXTT22=
EXTT23=
EXTT24=
EXTT25=
EXTT26=
PLAYORDER=
